<?xml version="1.0" standalone="no"?><!DOCTYPE svg PUBLIC "-//W3C//DTD SVG 1.1//EN" "http://www.w3.org/Graphics/SVG/1.1/DTD/svg11.dtd"><svg t="1516873764397" class="icon" style="" viewBox="0 0 1024 1024" version="1.1" xmlns="http://www.w3.org/2000/svg" p-id="5871" xmlns:xlink="http://www.w3.org/1999/xlink" width="60" height="60"><defs><style type="text/css"></style></defs><path d="M215.581911 862.307166l323.365187 0c0-18.593498 2.371344-36.648055 6.790669-53.894198L215.581911 808.412969 215.581911 862.307166zM808.418089 646.730375l-53.894198 0c18.593498 0 36.648055 2.371344 53.894198 6.790669L808.418089 646.730375zM808.418089 1023.98976 808.418089 916.201364 916.206484 916.201364 916.206484 808.412969 808.418089 808.412969 808.418089 700.624573 700.629693 700.624573 700.629693 808.412969 592.841297 808.412969 592.841297 916.201364 700.629693 916.201364 700.629693 1023.98976ZM754.523891 646.730375 215.581911 646.730375l0 53.894198 396.337932 0C649.915253 667.102382 699.875174 646.730375 754.523891 646.730375zM215.581911 485.047782l592.836177 0 0 53.894198-592.836177 0 0-53.894198ZM916.206484 11.317782C916.206484 5.066054 911.248219 0 905.10428 0L118.89572 0C112.751781 0 107.793516 5.012161 107.793516 11.317782l0 1001.354197C107.793516 1018.923706 112.751781 1023.98976 118.89572 1023.98976l493.024123 0c-17.46172-15.413741-32.390413-33.62998-44.139348-53.894198L161.687714 970.095562 161.687714 53.894198l700.624573 0 0 621.669572c20.264218 11.748936 38.480457 26.677628 53.894198 44.139348L916.206484 11.317782zM215.581911 323.365187l592.836177 0 0 53.894198-592.836177 0 0-53.894198ZM215.581911 161.682594l592.836177 0 0 53.894198-592.836177 0 0-53.894198Z" p-id="5872" fill="#ffffff"></path></svg>