<?xml version="1.0" standalone="no"?><!DOCTYPE svg PUBLIC "-//W3C//DTD SVG 1.1//EN" "http://www.w3.org/Graphics/SVG/1.1/DTD/svg11.dtd"><svg t="1516873868743" class="icon" style="" viewBox="0 0 1024 1024" version="1.1" xmlns="http://www.w3.org/2000/svg" p-id="8168" xmlns:xlink="http://www.w3.org/1999/xlink" width="60" height="60"><defs><style type="text/css"></style></defs><path d="M502.052627 1024c-274.996367 0-501.464615-224.666957-501.464615-502.620501S224.745493 16.447223 504.3644 16.447223c277.307134 0 503.776388 226.977724 503.776388 504.931268S781.671534 1024 502.052627 1024L502.052627 1024zM504.3644 85.910186c-240.333856 0-434.448346 194.591747-434.448346 435.469313 0 238.565792 194.115497 433.157539 432.137579 433.157539 240.333856 0 436.759113-194.591747 436.759113-433.157539S744.69725 85.910186 504.3644 85.910186L504.3644 85.910186zM793.226376 273.535398 622.219555 625.606666c-4.621534 6.967541-9.243068 13.899842-16.176375 16.211616L259.409011 808.610344c-4.622541 2.311774-9.244075 4.622541-13.866615 4.622541-9.243068 0-18.486135-2.310767-25.419443-9.278308-11.554841-9.244075-13.865608-25.453677-6.933308-39.353519l168.696054-354.383041c2.310767-6.966534 9.243068-13.898835 16.176375-16.243836l348.944936-164.448069c13.865608-6.931294 30.042991-4.620527 39.285051 6.967541C797.84791 248.081722 800.158676 264.291324 793.226376 273.535398L793.226376 273.535398zM504.3644 451.882302c-39.285051 0-69.328042 30.109444-69.328042 69.497196s30.042991 69.497196 69.328042 69.497196c36.973278 0 69.327035-30.109444 69.327035-69.497196S541.337678 451.882302 504.3644 451.882302L504.3644 451.882302z" p-id="8169" fill="#ffffff"></path></svg>