<?xml version="1.0" standalone="no"?><!DOCTYPE svg PUBLIC "-//W3C//DTD SVG 1.1//EN" "http://www.w3.org/Graphics/SVG/1.1/DTD/svg11.dtd"><svg t="1516873695072" class="icon" style="" viewBox="0 0 1032 1024" version="1.1" xmlns="http://www.w3.org/2000/svg" p-id="3533" xmlns:xlink="http://www.w3.org/1999/xlink" width="60.46875" height="60"><defs><style type="text/css"></style></defs><path d="M867.868033 629.509321 867.868033 629.509321c-18.222013 0-32.994462 14.890128-32.994462 33.257451l0 209.18016c0 13.673417-10.996448 24.756847-24.561395 24.756847L213.294874 896.703779c-13.563924 0-24.560372-11.083429-24.560372-24.756847L188.734502 663.534252c0-18.367323-14.771425-33.257451-32.994462-33.257451l0 0c-18.222013 0-32.994462 14.890128-32.994462 33.257451l0 208.413704c0 50.408063 40.540322 91.27175 90.548272 91.27175l597.018326 0c50.008974 0 90.549296-40.863686 90.549296-91.27175l0-209.18016C900.862495 644.399449 886.09107 629.509321 867.868033 629.509321z" p-id="3534" fill="#ffffff"></path><path d="M793.745872 275.293927 220.212424 275.293927c-10.344602 0-18.808368 8.463766-18.808368 18.808368l0 21.697161c0 10.344602 8.463766 18.808368 18.808368 18.808368l573.533448 0c10.344602 0 18.808368-8.463766 18.808368-18.808368l0-21.697161C812.555264 283.757692 804.091498 275.293927 793.745872 275.293927z" p-id="3535" fill="#ffffff"></path><path d="M1013.631862 369.08608c-0.831948-7.099698-9.309016-25.882484-16.440437-38.571481l-0.267083 0.207731c-0.479931-1.375324-1.088798-2.723018-1.832741-4.02364L866.468151 92.922343l-3.530406-5.558599c-0.735757-0.985444-1.411139-1.951445-2.065032-2.880607-6.05081-8.593725-18.642592-26.476001-47.12632-26.476001L197.494003 58.007135c-16.250102 0-34.719756 9.280364-47.052642 23.642466l-2.358721 2.746554L20.327978 314.400596c-1.630127 3.264347-2.787486 6.481621-3.542686 9.567913-0.236384 0.700965-0.441045 1.470491-0.602727 2.331092-45.201481 143.0623 67.807339 258.805394 180.15408 263.812431 69.493747 0 130.672108-36.56273 165.602665-91.605348 35.053354 55.05285 95.321996 91.461061 163.65736 91.461061 68.935022 0 129.661082-37.050848 164.574243-92.91518 32.578999 56.474222 91.208305 92.548836 161.750941 92.548836 52.571333 0 96.699366-22.733771 126.607536-74.048483C1001.089198 476.843292 1021.960551 440.132182 1013.631862 369.08608zM932.09073 481.941404c-20.37812 29.828352-48.329728 40.120766-78.138638 40.120766-65.620533 0-114.580618-45.335535-124.07383-110.551862 0.092098-12.244882-12.189623-24.297382-23.50125-24.297382l-19.535939 0c-0.499373 0-0.994654 0.029676-1.484817 0.075725l-9.334599 0c-11.94096 0.721431-20.09978 9.590426-19.912515 24.472368 0.86981 69.334111-62.229297 111.1331-130.513496 111.1331-67.237357 0-122.808-52.676733-130.202411-120.244618-0.961908-8.786107-8.263198-15.359826-16.807804-15.359826l-9.924024 0c-5.448082-0.415462-11.103896 0-15.9646 0l-6.164397 0c-10.088776 0-19.397792 8.253988-20.431332 18.36937-6.753821 66.126047-62.374606 115.589598-129.765459 115.89352-72.837912 0.328481-145.662521-105.400538-121.2976-171.511235 0.005117-0.00921 0.008186-0.017396 0.01228-0.027629 1.735527-3.320629 3.621481-7.329942 5.691629-12.152784L200.37461 125.081787l608.887654 0c0.406253 0.574075 0.836041 1.176802 1.291412 1.805112l131.149992 228.680283c5.091972 5.608741 11.233855 23.898293 11.793604 25.310456 0.502443 1.2689 0.934279 2.036379 1.333368 2.436492C962.961832 419.47777 943.447383 465.318818 932.09073 481.941404z" p-id="3536" fill="#ffffff"></path></svg>